<?xml version="1.0" encoding="UTF-8" standalone="no"?>
<!-- Created with Inkscape (http://www.inkscape.org/) -->

<svg
   xmlns:dc="http://purl.org/dc/elements/1.1/"
   xmlns:cc="http://creativecommons.org/ns#"
   xmlns:rdf="http://www.w3.org/1999/02/22-rdf-syntax-ns#"
   xmlns:svg="http://www.w3.org/2000/svg"
   xmlns="http://www.w3.org/2000/svg"
   xmlns:sodipodi="http://sodipodi.sourceforge.net/DTD/sodipodi-0.dtd"
   xmlns:inkscape="http://www.inkscape.org/namespaces/inkscape"
   width="2400"
   height="3050"
   viewBox="0 0 634.99999 806.97916"
   version="1.1"
   id="svg8"
   inkscape:version="0.92.4 (5da689c313, 2019-01-14)"
   sodipodi:docname="Penguin-01.svg">
  <defs
     id="defs2" />
  <sodipodi:namedview
     id="base"
     pagecolor="#ffffff"
     bordercolor="#666666"
     borderopacity="1.0"
     inkscape:pageopacity="0.0"
     inkscape:pageshadow="2"
     inkscape:zoom="0.175"
     inkscape:cx="718.68395"
     inkscape:cy="1449.4087"
     inkscape:document-units="mm"
     inkscape:current-layer="layer1"
     showgrid="false"
     units="px"
     inkscape:pagecheckerboard="true"
     inkscape:showpageshadow="false"
     borderlayer="true"
     inkscape:object-nodes="false"
     inkscape:window-width="1600"
     inkscape:window-height="837"
     inkscape:window-x="-8"
     inkscape:window-y="-8"
     inkscape:window-maximized="1" />
  <metadata
     id="metadata5">
    <rdf:RDF>
      <cc:Work
         rdf:about="">
        <dc:format>image/svg+xml</dc:format>
        <dc:type
           rdf:resource="http://purl.org/dc/dcmitype/StillImage" />
        <dc:title></dc:title>
      </cc:Work>
    </rdf:RDF>
  </metadata>
  <g
     inkscape:label="Layer 1"
     inkscape:groupmode="layer"
     id="layer1"
     transform="translate(0,509.97916)">
    <path
       style="fill:#f49620;fill-opacity:1;stroke-width:0.41213825"
       d="m 216.22072,287.31358 c -0.85127,-0.7017 -2.31086,-2.39951 -3.24351,-3.77292 -5.94191,-8.74982 -9.32439,-9.40515 -24.65831,-4.77721 -12.37629,3.73528 -15.70363,4.27292 -18.69894,3.02138 -2.13087,-0.8903 -3.35229,-3.02708 -5.16579,-9.03712 -2.31435,-7.66988 -3.23463,-8.62222 -8.07598,-8.35701 -2.20427,0.12071 -4.9271,0.84686 -11.53988,3.07753 -9.90333,3.34058 -10.8593,3.55877 -13.03115,2.97394 -1.87509,-0.50491 -2.42546,-1.36273 -2.42,-3.77206 0.0198,-8.75612 16.8136,-23.38938 51.91019,-45.23187 17.69326,-11.01149 26.73172,-15.37865 34.23885,-16.5434 5.49499,-0.85259 9.58803,0.4923 17.35238,5.70159 5.62694,3.77529 9.26398,5.57423 13.99902,6.92418 4.96608,1.41582 8.48523,2.88785 10.04845,4.20323 4.54919,3.82791 4.3511,9.39062 -0.73003,20.50001 -6.0488,13.2251 -18.98491,32.08204 -28.27317,41.21381 -5.36623,5.27583 -8.68242,6.37324 -11.71213,3.87592 z"
       id="path4808"
       inkscape:connector-curvature="0" />
    <path
       style="fill:#f49620;fill-opacity:1;stroke-width:0.41213825"
       d="m 408.19465,287.39057 c -4.09683,-2.3679 -12.51005,-11.93511 -19.81008,-22.52723 -11.76817,-17.0753 -18.25826,-31.42773 -17.06665,-37.74169 0.90761,-4.80895 3.83741,-6.95074 13.13369,-9.60109 4.73505,-1.34996 8.3721,-3.1489 13.99901,-6.92417 7.79246,-5.22818 11.85154,-6.5551 17.41256,-5.69229 8.22128,1.27557 18.75838,6.63284 41.12588,20.90906 30.33332,19.36052 44.91597,32.61299 44.95802,40.8569 0.0129,2.40685 -0.53834,3.26675 -2.41504,3.77207 -2.17193,0.58482 -3.12803,0.36444 -13.03118,-3.00384 -7.92225,-2.69451 -8.93981,-2.94436 -12.02075,-2.95136 -2.99661,-0.007 -3.48203,0.1015 -4.42622,0.98752 -1.18135,1.10866 -2.1766,3.52205 -3.53949,8.58283 -0.50295,1.86777 -1.47295,4.23904 -2.15557,5.26955 -2.72416,4.11273 -6.17288,4.07556 -20.15457,-0.2174 -7.80589,-2.3967 -10.85518,-3.03688 -14.57844,-3.06058 -4.92495,-0.0313 -7.33069,1.55606 -11.24394,7.41947 -3.54924,5.31799 -6.08394,6.29389 -10.18723,3.92225 z"
       id="path4609"
       inkscape:connector-curvature="0" />
    <path
       style="fill:#212121;fill-opacity:1;stroke-width:0.41213825"
       d="M 301.10379,255.54016 C 275.6272,254.78137 256.0991,252.40143 237.22238,247.75484 209.93294,241.03739 183.62705,229.32739 164.33856,215.31085 131.50773,191.45341 109.56497,155.76237 99.01803,109.06372 94.79197,90.352019 93.045059,74.296764 93.031443,54.043268 c -0.01422,-21.267778 1.904013,-40.705419 7.291877,-73.886083 0.52545,-3.235828 0.82338,-5.832299 0.66209,-5.769937 -0.16128,0.06227 -17.644015,19.3146936 -38.850511,42.783039 -25.421523,28.132927 -39.11124,42.981024 -40.183369,43.583615 -2.05027,1.152296 -4.549978,1.193886 -5.942114,0.09884 -1.32372,-1.041228 -2.629733,-3.824562 -3.444554,-7.340891 -0.892132,-3.849938 -1.249045,-19.72382 -0.590247,-26.251306 3.368281,-33.3734744 15.065423,-60.99761 44.504071,-105.101513 8.975018,-13.446053 15.056954,-21.953703 37.123159,-51.929422 21.861275,-29.69732 29.355595,-40.49513 37.458695,-53.9705 8.49749,-14.13122 14.44172,-28.6189 20.21528,-49.27012 5.04333,-18.03918 6.64286,-31.69006 9.29622,-79.33662 2.11919,-38.05428 3.91583,-53.18085 8.45478,-71.18329 7.11469,-28.21841 22.88825,-54.80244 44.1468,-74.40295 11.1022,-10.23628 25.04021,-19.74335 37.72948,-25.73513 29.55973,-13.95787 61.82099,-18.28388 93.47521,-12.53437 40.47886,7.35239 76.4174,30.93741 99.28978,65.15992 14.60168,21.8476 22.71891,45.10638 26.39381,75.62738 1.41395,11.74274 2.01502,19.81733 3.743,50.28086 2.33571,41.17571 4.00914,54.78511 8.8683,72.1242 5.56808,19.86881 11.54609,34.74642 19.04425,47.3959 8.22133,13.86918 15.90046,24.97805 38.17649,55.22651 21.51548,29.21586 29.27661,40.088691 38.3843,53.773819 28.82403,43.310336 40.57165,71.3077556 43.69337,104.131597 0.65459,6.882499 0.29487,22.144221 -0.61497,26.089174 -0.7915,3.43191 -2.12076,6.221681 -3.46986,7.282934 -1.23124,0.968562 -3.75914,1.015469 -5.67708,0.105378 -0.87667,-0.416055 -4.84947,-4.47322 -10.39149,-10.612562 -41.88502,-46.3984348 -68.61762,-75.89967 -68.86296,-75.994709 -0.16122,-0.0625 0.13856,2.533992 0.66626,5.769937 3.15526,19.34948407 5.33395,36.32476 6.57361,51.218735 0.83577,10.041373 0.95762,32.813701 0.22044,41.213824 -2.82311,32.171473 -9.78563,58.874273 -21.7072,83.251913 -16.2556,33.24024 -38.78455,56.23354 -71.70394,73.18208 -30.17196,15.5339 -61.77513,23.68318 -100.56542,25.93206 -7.63247,0.44251 -37.27338,0.82473 -45.33521,0.58462 z"
       id="path4607"
       inkscape:connector-curvature="0" />
    <path
       style="fill:#dedede;fill-opacity:1;stroke-width:0.41213825"
       d="m 301.02572,255.3013 c -25.5243,-0.76017 -44.99899,-3.13727 -63.97803,-7.8091 -40.39121,-9.94264 -67.76167,-28.22999 -85.09843,-56.8579 -12.83279,-21.19053 -20.89143,-47.76764 -23.86884,-78.71838 -1.0809,-11.23618 -1.16092,-32.187187 -0.17159,-44.923093 2.50075,-32.19265 8.62425,-65.7582577 20.82698,-114.162287 12.39036,-49.148141 26.64999,-94.00133 39.5699,-124.46574 8.62823,-20.34491 17.5896,-36.72156 31.57333,-57.69936 l 7.96716,-11.95201 18.78091,-19.3525 c 17.45525,-17.98648 19.23795,-19.69693 25.25596,-24.23218 15.42609,-11.62532 25.84939,-17.52814 35.59112,-20.1556 4.96941,-1.34032 13.89057,-1.33352 18.89805,0.0143 9.817,2.64255 20.12079,8.4876 35.44389,20.10637 6.93064,5.25515 7.93704,6.2199 25.75863,24.69243 l 18.54622,19.22362 5.48375,8.0945 c 17.30568,25.54471 28.07312,45.9784 39.08998,74.18188 19.709,50.45543 42.81986,136.769081 51.22191,191.301229 5.6064,36.387728 6.16517,68.152791 1.68371,95.720341 -6.3341,38.965 -22.05066,70.47218 -44.58278,89.37569 -8.88781,7.45653 -18.0962,13.3175 -28.53758,18.1638 -23.14025,10.74032 -50.75649,16.93508 -84.11904,18.86929 -7.63246,0.44252 -37.27338,0.82472 -45.33521,0.58462 z M 23.913197,57.014015 C 21.865106,52.055661 22.290726,41.393367 24.895561,32.404624 29.574193,16.2596 45.440945,-14.8823 60.083799,-36.659931 c 14.893479,-22.150365 29.918829,-37.696512 59.138301,-61.18798 4.38014,-3.521479 8.07063,-6.402689 8.20107,-6.402689 0.13045,0 -1.34548,3.38469 -3.27985,7.521519 -12.39437,26.506675 -15.8143,36.84397 -22.28929,67.372983 l -0.71869,3.388556 L 68.784165,9.7624893 C 30.019699,52.575622 25.170316,57.890144 24.727914,58.044367 c -0.187076,0.06519 -0.553704,-0.39846 -0.814717,-1.030352 z m 581.126713,-3.11164 c -2.11912,-2.320632 -19.2744,-21.243174 -38.12273,-42.050057 l -34.26979,-37.830702 -0.75283,-3.589181 c -6.20478,-29.582217 -9.36108,-39.215082 -21.35555,-65.175826 -2.45406,-5.311439 -4.41336,-9.705779 -4.35401,-9.765129 0.0596,-0.0594 3.90493,2.97209 8.54564,6.736529 23.43575,19.010695 37.54303,32.613608 48.88187,47.134347 10.9477,14.019631 22.86367,33.475473 32.91951,53.7490559 10.60014,21.3710971 14.62692,33.4569591 14.624,43.8927141 0,5.402927 -1.03543,11.141588 -2.00392,11.122662 -0.14253,-0.0047 -1.99295,-1.903748 -4.11219,-4.224413 z"
       id="path4605"
       inkscape:connector-curvature="0" />
    <path
       style="fill:#f4f4f4;fill-opacity:1;stroke-width:0.41213825"
       d="m 296.99724,153.21194 c -20.68172,-0.7996 -35.7028,-4.21578 -49.946,-11.359 C 225.06115,130.8245 202.47693,107.46038 189.12426,81.925563 169.06208,43.559948 168.10839,2.0425579 185.309,-84.166146 c 9.43601,-47.292804 20.43929,-89.141504 37.13839,-141.248224 2.52655,-7.88366 4.66993,-14.61214 4.76306,-14.95215 0.0931,-0.34001 -2.72601,-4.7911 -6.26478,-9.89132 -22.90864,-33.01679 -31.8707,-52.33401 -35.88746,-77.3533 -1.0297,-6.41374 -1.23805,-21.03304 -0.39423,-27.66258 2.45428,-19.28239 10.50971,-35.87648 22.06247,-45.44842 6.82105,-5.65153 15.14215,-9.64646 24.43242,-11.72995 3.85572,-0.86471 14.07083,-1.23876 18.2744,-0.66919 15.54639,2.10651 28.98594,11.91126 35.4593,25.86913 3.74618,8.07751 5.51046,16.60078 5.51046,26.62123 0,12.08342 -2.94601,22.64483 -10.48935,37.60434 -3.02571,6.00037 -3.02633,6.00235 -1.93557,5.99657 0.60012,-0.003 9.57601,-0.55339 19.94644,-1.22268 l 18.85533,-1.21691 18.85531,1.21691 c 10.37044,0.66929 19.36881,1.2195 19.99642,1.22268 l 1.14108,0.006 -2.24388,-4.22442 c -3.0975,-5.83154 -6.97651,-15.07508 -8.66806,-20.65554 -5.24293,-17.29693 -2.82677,-37.46585 6.16131,-51.43161 2.44435,-3.79805 8.51601,-9.83398 12.56584,-12.49188 3.91899,-2.57202 9.00733,-4.82547 14.01271,-6.20574 5.4295,-1.49721 15.13957,-1.86991 21.38544,-0.82082 15.47604,2.59944 28.65066,10.97925 36.91895,23.48245 12.72696,19.24593 16.0168,46.30975 9.01959,74.20218 -4.96957,19.80989 -14.13613,37.46922 -34.76263,66.96976 l -5.04098,7.20971 1.65828,5.15443 c 8.62588,26.81208 12.57635,39.63842 17.39111,56.46564 16.91051,59.1005 29.80571,121.748468 33.99978,165.178492 0.92889,9.6186836 1.43977,28.293079 0.98906,36.15102 -0.81463,14.203356 -2.93574,26.703472 -6.39906,37.710651 -9.47628,30.118534 -32.01251,59.946257 -58.07855,76.869847 -13.39125,8.69435 -27.50368,13.58107 -45.24701,15.66772 -10.76917,1.26643 -34.91734,1.72027 -53.43735,1.00426 z"
       id="path4599"
       inkscape:connector-curvature="0" />
    <ellipse
       style="opacity:1;fill:#ef9620;fill-opacity:1;fill-rule:nonzero;stroke:none;stroke-width:2.24231458;stroke-linecap:round;stroke-linejoin:miter;stroke-miterlimit:4;stroke-dasharray:none;stroke-dashoffset:45.35433197;stroke-opacity:1;paint-order:normal"
       id="path4613"
       cx="316.67136"
       cy="-315.76788"
       rx="27.778431"
       ry="41.711071" />
    <path
       style="fill:#971a1c;fill-opacity:1;stroke-width:0.41213825"
       d="m 314.33005,-278.96142 c -6.18446,-0.81213 -12.13301,-6.02593 -15.84619,-13.88888 -5.85481,-12.39805 -5.82003,-34.30971 0.0674,-42.43703 0.68721,-0.94864 2.02491,-2.04677 3.18068,-2.61103 1.95334,-0.95364 2.25104,-0.97489 14.35884,-1.02517 13.32658,-0.0554 14.74862,0.11426 17.30358,2.06298 4.25158,3.24285 6.68402,14.86452 5.64651,26.97816 -0.5894,6.88161 -1.99417,12.70306 -4.13926,17.15333 -4.74842,9.85099 -12.2362,14.86223 -20.57152,13.76764 z"
       id="path4595"
       inkscape:connector-curvature="0" />
    <path
       style="fill:#ffbc26;fill-opacity:1;stroke-width:0.41213825"
       d="m 303.31061,-322.98743 c -7.21936,-1.89155 -13.22577,-3.53882 -13.34756,-3.6606 -0.32536,-0.32536 0.64225,-4.91229 1.83429,-8.69543 3.38377,-10.73893 9.11304,-17.34995 20.7421,-23.93438 l 4.10339,-2.32335 4.10337,2.32335 c 7.3895,4.18397 12.34835,8.35387 15.63487,13.14736 2.88002,4.20059 6.05811,12.40449 6.84937,17.68094 l 0.28676,1.91229 -1.58821,0.41295 c -6.88012,1.78888 -24.37831,6.31178 -24.87403,6.42939 -0.34001,0.0806 -6.52497,-1.40098 -13.74435,-3.29252 z"
       id="path4611"
       inkscape:connector-curvature="0" />
    <ellipse
       style="opacity:1;fill:#bc4042;fill-opacity:1;fill-rule:nonzero;stroke:none;stroke-width:1.99172938;stroke-linecap:round;stroke-linejoin:miter;stroke-miterlimit:4;stroke-dasharray:none;stroke-dashoffset:45.35433197;stroke-opacity:1;paint-order:normal"
       id="path4617"
       cx="317.01599"
       cy="-297.18765"
       rx="8.8773251"
       ry="16.943071" />
    <g
       id="g4800"
       transform="matrix(1.1682658,0,0,1.1682658,-211.15456,-43.264222)">
      <path
         inkscape:connector-curvature="0"
         id="path1005"
         d="m 517.01451,-240.35992 c -9.40077,-2.78633 -15.06283,-15.81444 -12.62834,-29.05705 0.81298,-4.42221 2.64103,-8.53261 5.19727,-11.68653 8.14379,-10.04765 20.79158,-5.89472 25.14048,8.25491 1.11334,3.62238 1.27036,4.8365 1.25722,9.72179 -0.0111,4.15615 -0.0603,4.75287 -0.56785,6.90143 -1.77982,7.53394 -5.83023,13.21012 -10.95106,15.34662 -2.05426,0.85708 -5.49728,1.09693 -7.44772,0.51883 z"
         style="fill:#12100d;fill-opacity:1;stroke-width:0.23479106" />
      <path
         inkscape:connector-curvature="0"
         id="path1035"
         d="m 515.28255,-268.78825 c -3.23504,-2.08041 -2.04946,-8.77727 1.55711,-8.79527 3.844,-0.0192 5.11225,6.51988 1.69901,8.7601 -1.14715,0.75287 -2.12362,0.76342 -3.25612,0.0352 z"
         style="fill:#e7e7e7;fill-opacity:1;stroke-width:0.23479106" />
    </g>
    <g
       id="g4804"
       transform="matrix(1.1682658,0,0,1.1682658,-211.15456,-43.264222)">
      <path
         style="fill:#12100d;fill-opacity:1;stroke-width:0.23479106"
         d="m 380.17252,-240.35992 c -9.40077,-2.78633 -15.06283,-15.81444 -12.62834,-29.05705 0.81298,-4.42221 2.64103,-8.53261 5.19727,-11.68653 8.14379,-10.04765 20.79158,-5.89472 25.14048,8.25491 1.11334,3.62238 1.27036,4.8365 1.25722,9.72179 -0.0111,4.15615 -0.0603,4.75287 -0.56785,6.90143 -1.77982,7.53394 -5.83023,13.21012 -10.95106,15.34662 -2.05426,0.85708 -5.49728,1.09693 -7.44772,0.51883 z"
         id="path4784"
         inkscape:connector-curvature="0" />
      <path
         style="fill:#e7e7e7;fill-opacity:1;stroke-width:0.23479106"
         d="m 378.44056,-268.78825 c -3.23504,-2.08041 -2.04946,-8.77727 1.55711,-8.79527 3.844,-0.0192 5.11225,6.51988 1.69901,8.7601 -1.14715,0.75287 -2.12362,0.76342 -3.25612,0.0352 z"
         id="path4788"
         inkscape:connector-curvature="0" />
    </g>
  </g>
</svg>
